<svg id="noun_adventure_1941281" xmlns="http://www.w3.org/2000/svg" width="12.238" height="12.238" viewBox="0 0 12.238 12.238">
  <g id="Group_188" data-name="Group 188" transform="translate(0 0)">
    <path id="Path_2127" data-name="Path 2127" d="M8.619,2.5a6.119,6.119,0,1,0,6.119,6.119A6.125,6.125,0,0,0,8.619,2.5Zm0,11.7A5.578,5.578,0,1,1,14.2,8.619,5.58,5.58,0,0,1,8.619,14.2Z" transform="translate(-2.5 -2.5)" fill="#fdfcf7"/>
    <path id="Path_2128" data-name="Path 2128" d="M28.745,23.167h0L25.37,24.636a1.367,1.367,0,0,0-.734.734l-1.469,3.375A.917.917,0,0,0,24,30.02a.864.864,0,0,0,.361-.077l3.375-1.469a1.367,1.367,0,0,0,.734-.734l1.469-3.375a.912.912,0,0,0-1.2-1.2Zm.709.979-1.469,3.375a.905.905,0,0,1-.464.464l-3.375,1.469a.371.371,0,0,1-.49-.49l1.469-3.375a.905.905,0,0,1,.464-.464l3.375-1.469h0a.339.339,0,0,1,.412.077A.374.374,0,0,1,29.454,24.146Z" transform="translate(-20.436 -20.436)" fill="#fdfcf7"/>
    <path id="Path_2129" data-name="Path 2129" d="M42.009,42a1.073,1.073,0,0,0,0,1.507,1.069,1.069,0,0,0,1.829-.76,1.117,1.117,0,0,0-.309-.76A1.1,1.1,0,0,0,42.009,42Zm1.134,1.134a.537.537,0,1,1-.76-.76.529.529,0,0,1,.747,0,.516.516,0,0,1,.155.374A.47.47,0,0,1,43.143,43.132Z" transform="translate(-36.65 -36.639)" fill="#fdfcf7"/>
  </g>
</svg>
