<svg id="noun_Food_2688587" xmlns="http://www.w3.org/2000/svg" width="17.122" height="11.886" viewBox="0 0 17.122 11.886">
  <g id="Group_283" data-name="Group 283" transform="translate(0 0)">
    <path id="Path_2150" data-name="Path 2150" d="M25.633,22.414a5.511,5.511,0,1,0,5.511,5.511A5.517,5.517,0,0,0,25.633,22.414Zm0,10.469a4.958,4.958,0,1,1,4.959-4.958A4.964,4.964,0,0,1,25.633,32.883Z" transform="translate(-17.062 -21.55)" fill="#fdfcf7"/>
    <path id="Path_2151" data-name="Path 2151" d="M32.05,30.278a4.063,4.063,0,1,0,4.063,4.063A4.067,4.067,0,0,0,32.05,30.278Zm0,7.573a3.511,3.511,0,1,1,3.51-3.511A3.514,3.514,0,0,1,32.05,37.851Z" transform="translate(-23.479 -27.966)" fill="#fdfcf7"/>
    <path id="Path_2152" data-name="Path 2152" d="M81.054,17.721a1.869,1.869,0,0,0-1.566,2.063,2.275,2.275,0,0,0,.711,1.73.724.724,0,0,1,.236.563l-.115,6.436a.754.754,0,0,0,.7.773h.036a.734.734,0,0,0,.735-.747l-.115-6.462a.724.724,0,0,1,.236-.563,2.275,2.275,0,0,0,.711-1.73A1.869,1.869,0,0,0,81.054,17.721Zm.5,3.372a1.264,1.264,0,0,0-.43.993l.115,6.462a.18.18,0,0,1-.055.134.187.187,0,0,1-.136.051.2.2,0,0,1-.172-.211l.115-6.436a1.265,1.265,0,0,0-.43-.993,1.745,1.745,0,0,1-.517-1.31c0-.819.464-1.51,1.014-1.51s1.014.692,1.014,1.51A1.745,1.745,0,0,1,81.551,21.093Z" transform="translate(-65.498 -17.721)" fill="#fdfcf7"/>
    <path id="Path_2153" data-name="Path 2153" d="M6.672,19.3a.276.276,0,1,0-.552,0v2.258a.263.263,0,0,1-.175.248,1.192,1.192,0,0,0-.795,1.146l.118,6.659a.18.18,0,0,1-.052.131.186.186,0,0,1-.26,0,.18.18,0,0,1-.052-.131l.119-6.659a1.192,1.192,0,0,0-.795-1.146.263.263,0,0,1-.176-.248V19.3a.276.276,0,1,0-.552,0v2.258a.817.817,0,0,0,.543.769.64.64,0,0,1,.427.616l-.118,6.659a.734.734,0,1,0,1.469,0L5.7,22.946a.64.64,0,0,1,.427-.616.817.817,0,0,0,.543-.769V19.3Z" transform="translate(-3.5 -18.787)" fill="#fdfcf7"/>
    <path id="Path_2154" data-name="Path 2154" d="M8.674,21.256V19.3a.276.276,0,1,0-.552,0v1.952a.276.276,0,0,0,.552,0Z" transform="translate(-7.271 -18.787)" fill="#fdfcf7"/>
    <path id="Path_2155" data-name="Path 2155" d="M13.158,21.256V19.3a.276.276,0,1,0-.552,0v1.952a.276.276,0,0,0,.552,0Z" transform="translate(-10.93 -18.787)" fill="#fdfcf7"/>
  </g>
</svg>
