<svg id="noun_Hut_233351" xmlns="http://www.w3.org/2000/svg" width="12.656" height="12.629" viewBox="0 0 12.656 12.629">
  <g id="Group_278" data-name="Group 278" transform="translate(0 0)">
    <g id="Group_262" data-name="Group 262" transform="translate(0 9.619)">
      <g id="Path_2140" data-name="Path 2140" transform="translate(-0.5 -36.3)" fill="#fdfcf7" stroke-linecap="round">
        <path d="M 12.59129905700684 37.24978637695312 L 1.037389278411865 37.24978637695312 C 0.8099992871284485 37.24978637695312 0.6249992847442627 37.06478500366211 0.6249992847442627 36.83739471435547 C 0.6249992847442627 36.61000442504883 0.8099992871284485 36.42500305175781 1.037389278411865 36.42500305175781 L 12.61816883087158 36.42500305175781 C 12.84367179870605 36.42500305175781 13.02748489379883 36.6069450378418 13.03052043914795 36.83174133300781 C 13.0064001083374 37.06663513183594 12.81451416015625 37.24978637695312 12.59129905700684 37.24978637695312 Z" stroke="none"/>
        <path d="M 12.59129905700684 37.12478637695312 C 12.74870300292969 37.12478637695312 12.88459587097168 36.9946174621582 12.90534973144531 36.82633590698242 C 12.89951610565186 36.6729736328125 12.77293491363525 36.55000305175781 12.61816883087158 36.55000305175781 L 1.037389278411865 36.55000305175781 C 0.8789193034172058 36.55000305175781 0.7499992847442627 36.67892456054688 0.7499992847442627 36.83739471435547 C 0.7499992847442627 36.99586486816406 0.8789193034172058 37.12478637695312 1.037389278411865 37.12478637695312 L 12.59129905700684 37.12478637695312 M 12.59129905700684 37.37478637695312 L 1.037389278411865 37.37478637695312 C 0.7418292760848999 37.37478637695312 0.4999992847442627 37.13295364379883 0.4999992847442627 36.83739471435547 C 0.4999992847442627 36.54182434082031 0.7418292760848999 36.30000305175781 1.037389278411865 36.30000305175781 L 12.61816883087158 36.30000305175781 C 12.91372966766357 36.30000305175781 13.15555953979492 36.54182434082031 13.15555953979492 36.83739471435547 C 13.12868976593018 37.13295364379883 12.88685894012451 37.37478637695312 12.59129905700684 37.37478637695312 Z" stroke="none" fill="#fdfcf7"/>
      </g>
    </g>
    <g id="Group_266" data-name="Group 266" transform="translate(1.558 9.619)">
      <g id="Group_263" data-name="Group 263">
        <g id="Path_2141" data-name="Path 2141" transform="translate(-6.3 -36.3)" fill="#fdfcf7" stroke-linecap="round">
          <path d="M 6.837391376495361 39.18439865112305 C 6.610001564025879 39.18439865112305 6.42500114440918 38.99939727783203 6.42500114440918 38.77199935913086 L 6.42500114440918 36.83739852905273 C 6.42500114440918 36.61000061035156 6.610001564025879 36.42499923706055 6.837391376495361 36.42499923706055 C 7.064781188964844 36.42499923706055 7.249781608581543 36.61000061035156 7.249781608581543 36.83739852905273 L 7.249781608581543 38.77199935913086 C 7.249781608581543 38.99939727783203 7.064781188964844 39.18439865112305 6.837391376495361 39.18439865112305 Z" stroke="none"/>
          <path d="M 6.837391376495361 39.05939865112305 C 6.995861530303955 39.05939865112305 7.124781608581543 38.93046951293945 7.124781608581543 38.77199935913086 L 7.124781608581543 36.83739852905273 C 7.124781608581543 36.67892837524414 6.995861530303955 36.54999923706055 6.837391376495361 36.54999923706055 C 6.678921222686768 36.54999923706055 6.55000114440918 36.67892837524414 6.55000114440918 36.83739852905273 L 6.55000114440918 38.77199935913086 C 6.55000114440918 38.93046951293945 6.678921222686768 39.05939865112305 6.837391376495361 39.05939865112305 M 6.837391376495361 39.30939865112305 C 6.541831493377686 39.30939865112305 6.30000114440918 39.06755828857422 6.30000114440918 38.77199935913086 L 6.30000114440918 36.83739852905273 C 6.30000114440918 36.54182815551758 6.541831493377686 36.29999923706055 6.837391376495361 36.29999923706055 C 7.132961273193359 36.29999923706055 7.374781608581543 36.54182815551758 7.374781608581543 36.83739852905273 L 7.374781608581543 38.77199935913086 C 7.374781608581543 39.06755828857422 7.132961273193359 39.30939865112305 6.837391376495361 39.30939865112305 Z" stroke="none" fill="#fdfcf7"/>
        </g>
      </g>
      <g id="Group_264" data-name="Group 264" transform="translate(4.219)">
        <g id="Path_2142" data-name="Path 2142" transform="translate(-22 -36.3)" fill="#fdfcf7" stroke-linecap="round">
          <path d="M 22.53739166259766 39.18439865112305 C 22.31000137329102 39.18439865112305 22.12500190734863 38.99939727783203 22.12500190734863 38.77199935913086 L 22.12500190734863 36.83739852905273 C 22.12500190734863 36.61000061035156 22.31000137329102 36.42499923706055 22.53739166259766 36.42499923706055 C 22.7647819519043 36.42499923706055 22.94978141784668 36.61000061035156 22.94978141784668 36.83739852905273 L 22.94978141784668 38.77199935913086 C 22.94978141784668 38.99939727783203 22.7647819519043 39.18439865112305 22.53739166259766 39.18439865112305 Z" stroke="none"/>
          <path d="M 22.53739166259766 39.05939865112305 C 22.69586181640625 39.05939865112305 22.82478141784668 38.93046951293945 22.82478141784668 38.77199935913086 L 22.82478141784668 36.83739852905273 C 22.82478141784668 36.67892837524414 22.69586181640625 36.54999923706055 22.53739166259766 36.54999923706055 C 22.37892150878906 36.54999923706055 22.25000190734863 36.67892837524414 22.25000190734863 36.83739852905273 L 22.25000190734863 38.77199935913086 C 22.25000190734863 38.93046951293945 22.37892150878906 39.05939865112305 22.53739166259766 39.05939865112305 M 22.53739166259766 39.30939865112305 C 22.24183082580566 39.30939865112305 22.00000190734863 39.06755828857422 22.00000190734863 38.77199935913086 L 22.00000190734863 36.83739852905273 C 22.00000190734863 36.54182815551758 22.24183082580566 36.29999923706055 22.53739166259766 36.29999923706055 C 22.83296203613281 36.29999923706055 23.07478141784668 36.54182815551758 23.07478141784668 36.83739852905273 L 23.07478141784668 38.77199935913086 C 23.07478141784668 39.06755828857422 22.83296203613281 39.30939865112305 22.53739166259766 39.30939865112305 Z" stroke="none" fill="#fdfcf7"/>
        </g>
      </g>
      <g id="Group_265" data-name="Group 265" transform="translate(8.437)">
        <g id="Path_2143" data-name="Path 2143" transform="translate(-37.7 -36.3)" fill="#fdfcf7" stroke-linecap="round">
          <path d="M 38.23739624023438 39.18439865112305 C 38.01000595092773 39.18439865112305 37.82500457763672 38.99939727783203 37.82500457763672 38.77199935913086 L 37.82500457763672 36.83739852905273 C 37.82500457763672 36.61000061035156 38.01000595092773 36.42499923706055 38.23739624023438 36.42499923706055 C 38.46479797363281 36.42499923706055 38.64979553222656 36.61000061035156 38.64979553222656 36.83739852905273 L 38.64979553222656 38.76595687866211 C 38.62651824951172 38.99331665039062 38.43876647949219 39.18439865112305 38.23739624023438 39.18439865112305 Z" stroke="none"/>
          <path d="M 38.23739624023438 39.05939865112305 C 38.37328338623047 39.05939865112305 38.50547409057617 38.92018508911133 38.52479553222656 38.75912475585938 L 38.52479553222656 36.83739852905273 C 38.52479553222656 36.67892837524414 38.39586639404297 36.54999923706055 38.23739624023438 36.54999923706055 C 38.07892608642578 36.54999923706055 37.95000457763672 36.67892837524414 37.95000457763672 36.83739852905273 L 37.95000457763672 38.77199935913086 C 37.95000457763672 38.93046951293945 38.07892608642578 39.05939865112305 38.23739624023438 39.05939865112305 M 38.23739624023438 39.30939865112305 C 37.94182586669922 39.30939865112305 37.70000457763672 39.06755828857422 37.70000457763672 38.77199935913086 L 37.70000457763672 36.83739852905273 C 37.70000457763672 36.54182815551758 37.94182586669922 36.29999923706055 38.23739624023438 36.29999923706055 C 38.53295516967773 36.29999923706055 38.77479553222656 36.54182815551758 38.77479553222656 36.83739852905273 L 38.77479553222656 38.77199935913086 C 38.74791717529297 39.06755828857422 38.50608444213867 39.30939865112305 38.23739624023438 39.30939865112305 Z" stroke="none" fill="#fdfcf7"/>
        </g>
      </g>
    </g>
    <g id="Group_277" data-name="Group 277" transform="translate(1.021 0)">
      <g id="Group_273" data-name="Group 273">
        <g id="Group_269" data-name="Group 269" transform="translate(4.783 0.629)">
          <g id="Group_267" data-name="Group 267" transform="translate(0 3.079)">
            <g id="Path_2144" data-name="Path 2144" transform="translate(-22.1 -14.3)" fill="#fdfcf7" stroke-linecap="round">
              <path d="M 27.50077819824219 15.24978160858154 L 22.63738822937012 15.24978160858154 C 22.40999794006348 15.24978160858154 22.22499847412109 15.06478214263916 22.22499847412109 14.83739185333252 C 22.22499847412109 14.61000156402588 22.40999794006348 14.4250020980835 22.63738822937012 14.4250020980835 L 27.50077819824219 14.4250020980835 C 27.72817802429199 14.4250020980835 27.91317749023438 14.61000156402588 27.91317749023438 14.83739185333252 C 27.91317749023438 15.06478214263916 27.72817802429199 15.24978160858154 27.50077819824219 15.24978160858154 Z" stroke="none"/>
              <path d="M 27.50077819824219 15.12478160858154 C 27.65924835205078 15.12478160858154 27.78817749023438 14.99586200714111 27.78817749023438 14.83739185333252 C 27.78817749023438 14.67892169952393 27.65924835205078 14.5500020980835 27.50077819824219 14.5500020980835 L 22.63738822937012 14.5500020980835 C 22.47891807556152 14.5500020980835 22.34999847412109 14.67892169952393 22.34999847412109 14.83739185333252 C 22.34999847412109 14.99586200714111 22.47891807556152 15.12478160858154 22.63738822937012 15.12478160858154 L 27.50077819824219 15.12478160858154 M 27.50077819824219 15.37478160858154 L 22.63738822937012 15.37478160858154 C 22.34182739257812 15.37478160858154 22.09999847412109 15.1329517364502 22.09999847412109 14.83739185333252 C 22.09999847412109 14.54182147979736 22.34182739257812 14.3000020980835 22.63738822937012 14.3000020980835 L 27.50077819824219 14.3000020980835 C 27.79634857177734 14.3000020980835 28.03817749023438 14.54182147979736 28.03817749023438 14.83739185333252 C 28.03817749023438 15.1329517364502 27.79634857177734 15.37478160858154 27.50077819824219 15.37478160858154 Z" stroke="none" fill="#fdfcf7"/>
            </g>
          </g>
          <g id="Group_268" data-name="Group 268" transform="translate(0.065)">
            <g id="Path_2145" data-name="Path 2145" transform="translate(-22.341 -2.841)" fill="#fdfcf7" stroke-linecap="round">
              <path d="M 27.6767463684082 6.869488716125488 C 27.6427173614502 6.869488716125488 27.5719165802002 6.869488716125488 27.5445671081543 6.855818748474121 L 27.5399169921875 6.853488445281982 L 27.53508758544922 6.851558685302734 L 27.52182769775391 6.846298694610596 C 26.9446964263916 6.618048667907715 23.99312782287598 5.390608787536621 22.56086730957031 3.63731861114502 C 22.49023628234863 3.556498527526855 22.45719718933105 3.450398683547974 22.46748733520508 3.343008518218994 C 22.47819709777832 3.231128692626953 22.53286743164062 3.131588697433472 22.62140655517578 3.062728643417358 L 22.6242561340332 3.060508728027344 L 22.62698745727539 3.058128595352173 C 22.69515609741211 2.998478651046753 22.78471755981445 2.965628623962402 22.87918663024902 2.965628623962402 C 23.0050163269043 2.965628623962402 23.12134742736816 3.022408723831177 23.1983470916748 3.121408700942993 C 24.57852745056152 4.79364013671875 27.59794807434082 6.029165744781494 27.85019302368164 6.095628261566162 L 27.81841659545898 6.089508533477783 C 28.02609634399414 6.172578811645508 28.12533760070801 6.396268844604492 28.04434776306152 6.598768711090088 C 27.98132705688477 6.766718864440918 27.84084701538086 6.869488716125488 27.6767463684082 6.869488716125488 Z" stroke="none"/>
              <path d="M 27.6767463684082 6.744488716125488 C 27.78741645812988 6.744488716125488 27.88304710388184 6.672798633575439 27.92632675170898 6.557408809661865 L 27.92828750610352 6.552348613739014 C 27.95476722717285 6.486128807067871 27.95368766784668 6.414408683776855 27.92523765563965 6.350388526916504 C 27.89611625671387 6.284878730773926 27.84169769287109 6.233448505401611 27.77199745178223 6.205568790435791 L 27.77317428588867 6.20262622833252 C 27.47637176513672 6.108845233917236 26.62599754333496 5.714864730834961 25.97600746154785 5.363818645477295 C 25.07968711853027 4.879748821258545 23.8538761138916 4.112058639526367 23.10420608520508 3.203808546066284 L 23.09967613220215 3.198148727416992 C 23.0465259552002 3.129818677902222 22.96616744995117 3.090628623962402 22.87918663024902 3.090628623962402 C 22.81500625610352 3.090628623962402 22.75466728210449 3.11249852180481 22.70929718017578 3.152198553085327 L 22.69814682006836 3.161398649215698 C 22.63704681396484 3.208918571472168 22.59931755065918 3.277648687362671 22.59191703796387 3.354928731918335 C 22.58489608764648 3.428218603134155 22.60686683654785 3.499968528747559 22.65219688415527 3.55176854133606 L 22.65766716003418 3.558238744735718 C 24.07033729553223 5.287548542022705 26.9957160949707 6.503808498382568 27.56780624389648 6.730058670043945 L 27.59350204467773 6.740525722503662 C 27.61276626586914 6.744488716125488 27.65554618835449 6.744488716125488 27.6767463684082 6.744488716125488 M 27.6767463684082 6.994488716125488 C 27.62300682067871 6.994488716125488 27.54240608215332 6.994488716125488 27.48866653442383 6.967618465423584 C 27.35431671142578 6.913878440856934 24.02248764038086 5.624138832092285 22.46405601501465 3.7163987159729 C 22.27597618103027 3.501448631286621 22.30283737182617 3.152138710021973 22.5446662902832 2.964058637619019 C 22.75961875915527 2.775968313217163 23.10892486572266 2.802838325500488 23.29701614379883 3.044668674468994 C 24.69422721862793 4.737448692321777 27.83796691894531 5.973448753356934 27.86483764648438 5.973448753356934 C 28.13353729248047 6.080918788909912 28.26787757873535 6.37648868560791 28.1604061126709 6.645188808441162 C 28.07979774475098 6.860138416290283 27.8917064666748 6.994488716125488 27.6767463684082 6.994488716125488 Z" stroke="none" fill="#fdfcf7"/>
            </g>
          </g>
        </g>
        <g id="Group_272" data-name="Group 272">
          <g id="Group_270" data-name="Group 270" transform="translate(0 3.708)">
            <g id="Path_2146" data-name="Path 2146" transform="translate(-4.3 -14.3)" fill="#fdfcf7" stroke-linecap="round">
              <path d="M 9.700776100158691 15.24978160858154 L 4.837395668029785 15.24978160858154 C 4.60999584197998 15.24978160858154 4.424995899200439 15.06478214263916 4.424995899200439 14.83739185333252 C 4.424995899200439 14.61000156402588 4.60999584197998 14.4250020980835 4.837395668029785 14.4250020980835 L 9.700785636901855 14.4250020980835 C 9.928175926208496 14.4250020980835 10.1131763458252 14.61000156402588 10.1131763458252 14.83739185333252 C 10.1131763458252 15.06478214263916 9.928175926208496 15.24978160858154 9.700776100158691 15.24978160858154 Z" stroke="none"/>
              <path d="M 9.700776100158691 15.12478160858154 C 9.859246253967285 15.12478160858154 9.988176345825195 14.99586200714111 9.988176345825195 14.83739185333252 C 9.988176345825195 14.67892169952393 9.859255790710449 14.5500020980835 9.700785636901855 14.5500020980835 L 4.837395668029785 14.5500020980835 C 4.67892599105835 14.5500020980835 4.549995899200439 14.67892169952393 4.549995899200439 14.83739185333252 C 4.549995899200439 14.99586200714111 4.67892599105835 15.12478160858154 4.837395668029785 15.12478160858154 L 9.700776100158691 15.12478160858154 M 9.700776100158691 15.37478160858154 L 4.837395668029785 15.37478160858154 C 4.541825771331787 15.37478160858154 4.299995899200439 15.1329517364502 4.299995899200439 14.83739185333252 C 4.299995899200439 14.54182147979736 4.541825771331787 14.3000020980835 4.837395668029785 14.3000020980835 L 9.700785636901855 14.3000020980835 C 9.996345520019531 14.3000020980835 10.2381763458252 14.54182147979736 10.2381763458252 14.83739185333252 C 10.2381763458252 15.1329517364502 9.996345520019531 15.37478160858154 9.700776100158691 15.37478160858154 Z" stroke="none" fill="#fdfcf7"/>
            </g>
          </g>
          <g id="Group_271" data-name="Group 271" transform="translate(0.017)">
            <g id="Path_2147" data-name="Path 2147" transform="translate(-4.362 -0.5)" fill="#fdfcf7" stroke-linecap="round">
              <path d="M 4.882665634155273 5.157780170440674 C 4.718575954437256 5.157780170440674 4.57809591293335 5.055010318756104 4.516056060791016 4.889590263366699 C 4.434075832366943 4.6845703125 4.533325672149658 4.460870265960693 4.741005897521973 4.377800464630127 L 4.7079176902771 4.384172916412354 C 4.943727970123291 4.322145462036133 7.841224193572998 3.143333911895752 9.248605728149414 1.550050377845764 L 9.279926300048828 1.514600276947021 L 9.279926300048828 1.467300295829773 L 9.279926300048828 1.037390351295471 C 9.279926300048828 0.8100003004074097 9.464925765991211 0.6250002980232239 9.692316055297852 0.6250002980232239 C 9.919715881347656 0.6250002980232239 10.10471630096436 0.8100003004074097 10.10471630096436 1.037390351295471 L 10.10471630096436 1.682260274887085 C 10.10471630096436 1.764729857444763 10.07833766937256 1.843595743179321 10.0217752456665 1.92999267578125 C 8.563032150268555 3.680893659591675 5.614461898803711 4.906453132629395 5.03769588470459 5.134550094604492 L 5.024335861206055 5.13985013961792 L 5.019505977630615 5.141780376434326 L 5.014855861663818 5.144110202789307 C 4.987505912780762 5.157780170440674 4.916696071624756 5.157780170440674 4.882665634155273 5.157780170440674 Z" stroke="none"/>
              <path d="M 4.882665634155273 5.032780170440674 C 4.903885364532471 5.032780170440674 4.946696758270264 5.032780170440674 4.965950012207031 5.02880334854126 L 4.991725921630859 5.018310546875 C 5.562908172607422 4.792419910430908 8.47999095916748 3.580212593078613 9.920963287353516 1.855701684951782 C 9.961521148681641 1.792297601699829 9.979716300964355 1.738395810127258 9.979716300964355 1.682260274887085 L 9.979716300964355 1.037390351295471 C 9.979716300964355 0.878920316696167 9.850786209106445 0.7500002980232239 9.692316055297852 0.7500002980232239 C 9.533845901489258 0.7500002980232239 9.404926300048828 0.878920316696167 9.404926300048828 1.037390351295471 L 9.404926300048828 1.56190037727356 L 9.34229564666748 1.632810354232788 C 8.579436302185059 2.496420383453369 7.385525703430176 3.228070259094238 6.518285751342773 3.689760208129883 C 5.89081335067749 4.023808002471924 5.074241161346436 4.398533821105957 4.786100387573242 4.490521907806396 L 4.787436008453369 4.493860244750977 C 4.64482593536377 4.550900459289551 4.576175689697266 4.703220367431641 4.631135940551758 4.840630531311035 L 4.633095741271973 4.845700263977051 C 4.676375865936279 4.961090087890625 4.772006034851074 5.032780170440674 4.882665634155273 5.032780170440674 M 4.882665634155273 5.282780170440674 C 4.667716026306152 5.282780170440674 4.479625701904297 5.148430347442627 4.3990159034729 4.933480262756348 C 4.2915358543396 4.664780139923096 4.425885677337646 4.36922025680542 4.694585800170898 4.261740207672119 C 4.721456050872803 4.261740207672119 7.730845928192139 3.079480409622192 9.154926300048828 1.467300295829773 L 9.154926300048828 1.037390351295471 C 9.154926300048828 0.7418303489685059 9.396756172180176 0.5000002980232239 9.692316055297852 0.5000002980232239 C 9.987885475158691 0.5000002980232239 10.22971630096436 0.7418303489685059 10.22971630096436 1.037390351295471 L 10.22971630096436 1.682260274887085 C 10.22971630096436 1.816610336303711 10.17597579956055 1.924090266227722 10.12223625183105 2.004690408706665 C 8.53692626953125 3.912430286407471 5.205105781555176 5.202170372009277 5.070755958557129 5.255910396575928 C 5.017015933990479 5.282780170440674 4.936405658721924 5.282780170440674 4.882665634155273 5.282780170440674 Z" stroke="none" fill="#fdfcf7"/>
            </g>
          </g>
        </g>
      </g>
      <g id="Group_276" data-name="Group 276" transform="translate(0.914 3.708)">
        <g id="Group_274" data-name="Group 274">
          <g id="Path_2148" data-name="Path 2148" transform="translate(-7.7 -14.3)" fill="#fdfcf7" stroke-linecap="round">
            <path d="M 16.05643081665039 21.16108322143555 L 8.237390518188477 21.16108322143555 C 8.010000228881836 21.16108322143555 7.825000762939453 20.97608375549316 7.825000762939453 20.74869346618652 L 7.825000762939453 14.83739280700684 C 7.825000762939453 14.61000347137451 8.010000228881836 14.42500305175781 8.237390518188477 14.42500305175781 L 16.05643081665039 14.42500305175781 C 16.28382110595703 14.42500305175781 16.46882057189941 14.61000347137451 16.46882057189941 14.83739280700684 L 16.46882057189941 20.74264907836914 C 16.44554328918457 20.97000885009766 16.25781059265137 21.16108322143555 16.05643081665039 21.16108322143555 Z M 8.6497802734375 15.24978351593018 L 8.6497802734375 15.37478351593018 L 8.6497802734375 20.23817253112793 L 8.6497802734375 20.36317253112793 L 8.7747802734375 20.36317253112793 L 15.51904106140137 20.36317253112793 L 15.64404106140137 20.36317253112793 L 15.64404106140137 20.23817253112793 L 15.64404106140137 15.37478351593018 L 15.64404106140137 15.24978351593018 L 15.51904106140137 15.24978351593018 L 8.7747802734375 15.24978351593018 L 8.6497802734375 15.24978351593018 Z" stroke="none"/>
            <path d="M 16.05643081665039 21.03608322143555 C 16.19231986999512 21.03608322143555 16.32449913024902 20.89687919616699 16.34382057189941 20.7358283996582 L 16.34382057189941 14.83739280700684 C 16.34382057189941 14.67892360687256 16.21490097045898 14.55000305175781 16.05643081665039 14.55000305175781 L 8.237390518188477 14.55000305175781 C 8.078920364379883 14.55000305175781 7.950000762939453 14.67892360687256 7.950000762939453 14.83739280700684 L 7.950000762939453 20.74869346618652 C 7.950000762939453 20.90716361999512 8.078920364379883 21.03608322143555 8.237390518188477 21.03608322143555 L 16.05643081665039 21.03608322143555 M 8.5247802734375 15.12478351593018 L 15.76904106140137 15.12478351593018 L 15.76904106140137 20.48817253112793 L 8.5247802734375 20.48817253112793 L 8.5247802734375 15.12478351593018 M 16.05643081665039 21.28608322143555 L 8.237390518188477 21.28608322143555 C 7.941830635070801 21.28608322143555 7.700000762939453 21.04425239562988 7.700000762939453 20.74869346618652 L 7.700000762939453 14.83739280700684 C 7.700000762939453 14.541823387146 7.941830635070801 14.30000305175781 8.237390518188477 14.30000305175781 L 16.05643081665039 14.30000305175781 C 16.35198974609375 14.30000305175781 16.59382057189941 14.541823387146 16.59382057189941 14.83739280700684 L 16.59382057189941 20.74869346618652 C 16.56694984436035 21.04426383972168 16.32513046264648 21.28608322143555 16.05643081665039 21.28608322143555 Z M 8.7747802734375 15.37478351593018 L 8.7747802734375 20.23817253112793 L 15.51904106140137 20.23817253112793 L 15.51904106140137 15.37478351593018 L 8.7747802734375 15.37478351593018 Z" stroke="none" fill="#fdfcf7"/>
          </g>
        </g>
        <g id="Group_275" data-name="Group 275" transform="translate(2.66 2.176)">
          <g id="Path_2149" data-name="Path 2149" transform="translate(-17.6 -22.4)" fill="#fdfcf7" stroke-linecap="round">
            <path d="M 20.63626289367676 27.08465576171875 L 18.13739395141602 27.08465576171875 C 17.90999412536621 27.08465576171875 17.7249927520752 26.89965438842773 17.7249927520752 26.67226409912109 L 17.7249927520752 22.9373950958252 C 17.7249927520752 22.71000480651855 17.90999412536621 22.52500534057617 18.13739395141602 22.52500534057617 L 20.63626289367676 22.52500534057617 C 20.8636531829834 22.52500534057617 21.04865455627441 22.71000480651855 21.04865455627441 22.9373950958252 L 21.04865455627441 26.66622161865234 C 21.02537536621094 26.89358139038086 20.83764266967773 27.08465576171875 20.63626289367676 27.08465576171875 Z M 18.54978370666504 23.34978485107422 L 18.54978370666504 23.47478485107422 L 18.54978370666504 26.16173553466797 L 18.54978370666504 26.28673553466797 L 18.67478370666504 26.28673553466797 L 20.12573432922363 26.28673553466797 L 20.25073432922363 26.28673553466797 L 20.25073432922363 26.16173553466797 L 20.25073432922363 23.47478485107422 L 20.25073432922363 23.34978485107422 L 20.12573432922363 23.34978485107422 L 18.67478370666504 23.34978485107422 L 18.54978370666504 23.34978485107422 Z" stroke="none"/>
            <path d="M 20.63626289367676 26.95965576171875 C 20.77215194702148 26.95965576171875 20.90433311462402 26.82044982910156 20.92365455627441 26.65940093994141 L 20.92365455627441 22.9373950958252 C 20.92365455627441 22.7789249420166 20.79473304748535 22.65000534057617 20.63626289367676 22.65000534057617 L 18.13739395141602 22.65000534057617 C 17.97892379760742 22.65000534057617 17.8499927520752 22.7789249420166 17.8499927520752 22.9373950958252 L 17.8499927520752 26.67226409912109 C 17.8499927520752 26.83073425292969 17.97892379760742 26.95965576171875 18.13739395141602 26.95965576171875 L 20.63626289367676 26.95965576171875 M 18.42478370666504 23.22478485107422 L 20.37573432922363 23.22478485107422 L 20.37573432922363 26.41173553466797 L 18.42478370666504 26.41173553466797 L 18.42478370666504 23.22478485107422 M 20.63626289367676 27.20965576171875 L 18.13739395141602 27.20965576171875 C 17.84182357788086 27.20965576171875 17.5999927520752 26.96782493591309 17.5999927520752 26.67226409912109 L 17.5999927520752 22.9373950958252 C 17.5999927520752 22.64182472229004 17.84182357788086 22.40000534057617 18.13739395141602 22.40000534057617 L 20.63626289367676 22.40000534057617 C 20.93182373046875 22.40000534057617 21.17365455627441 22.64182472229004 21.17365455627441 22.9373950958252 L 21.17365455627441 26.67226409912109 C 21.14678382873535 26.96782493591309 20.90495300292969 27.20965576171875 20.63626289367676 27.20965576171875 Z M 18.67478370666504 23.47478485107422 L 18.67478370666504 26.16173553466797 L 20.12573432922363 26.16173553466797 L 20.12573432922363 23.47478485107422 L 18.67478370666504 23.47478485107422 Z" stroke="none" fill="#fdfcf7"/>
          </g>
        </g>
      </g>
    </g>
  </g>
</svg>
