<svg xmlns="http://www.w3.org/2000/svg" width="44.469" height="56.614" viewBox="0 0 44.469 56.614">
  <g id="Group_536" data-name="Group 536" transform="translate(-215.498 -623.413)">
    <g id="Group_473" data-name="Group 473" transform="translate(215.498 623.413)" opacity="0.55">
      <g id="noun_Colombia_252233" transform="matrix(0.998, 0.07, -0.07, 0.998, 3.76, 0)" opacity="0.234">
        <g id="Group_468" data-name="Group 468" transform="translate(0 0)">
          <path id="Path_2228" data-name="Path 2228" d="M21.855,2.369h1.125L24.047,1.3,22.685,0H21.678L17,4.62H13.327V6.1h-.948l-.474-.474h-.652L9.121,7.7v3.672H8.055l-3.08,3.08L6.1,15.636V16.7H5.508v-.355l-1.9-1.9v.77l1.244,1.244L2.132,19.131l2.191,2.191v2.014l.533.533L3.85,24.876l.77.77v3.672l1.244,1.244v1.007l-1.6,1.6v.948l-.652.592H2.191L1.185,35.715v1.066l.592.592-.415.355H.592L0,38.38l1.244,1.244H2.428L3.554,40.69H5.331l1.185,1.185H9.121l.652-.652h.652l1.185,1.125h3.613l4.62,4.62h1.185v1.777h3.317l.948-.948h5.153l1.244,1.244-1.125,1.125v2.665h.948L32.576,53.9V50.878l.533-.533V43.3l-2.547-2.547V38.2l.711-.711h2.251V36.248H31.273V34.116h4.916V32.872H36.6l.711.711,1.244-1.244,1.481,1.481v1.3h.77v-1.9l-3.376-3.376,1.481-1.481V27.245l-1.955-1.955V21.737l.77-.77v-.888l.592-.592v-.829H35.715l-.652.592H30.858l-2.191-2.191H26.416l-.711.652H22.566l-1.658-1.658V13.445L18.361,10.9l-.711.711-.592-.592L18.124,9.95V6.219Z" fill="#fdfcf7"/>
        </g>
      </g>
    </g>
  </g>
</svg>
