<svg id="noun_off-road_1938384" xmlns="http://www.w3.org/2000/svg" width="15.082" height="14.328" viewBox="0 0 15.082 14.328">
  <g id="Group_433" data-name="Group 433" transform="translate(0 0)">
    <path id="Path_2206" data-name="Path 2206" d="M17.082,14.557V13.049a.251.251,0,0,0-.251-.251h-.5V10.033a.251.251,0,0,0-.251-.251H12.708l-.223-.413L11.019,6.646a.251.251,0,0,0-.221-.132H9.7a1,1,0,0,0,.347-.754V5.005A1,1,0,0,0,9.038,4H4.262A1,1,0,0,0,3.257,5.005V5.76a1,1,0,0,0,.347.754h-.85a.251.251,0,0,0-.248.213L2,9.995a.242.242,0,0,0,0,.038v4.525a.251.251,0,0,0,.251.251h.463a2.5,2.5,0,0,0,.8,3.016H2v.5H17.082v-.5H14.813a2.5,2.5,0,0,0,.8-3.016h1.217A.251.251,0,0,0,17.082,14.557ZM9.541,5.005V5.76a.5.5,0,0,1-.5.5H8.284v-.5h.5a.251.251,0,0,0,.251-.251V4.5A.5.5,0,0,1,9.541,5.005ZM8.536,4.5v.754h-.5a.251.251,0,0,0-.251.251v.754H6.525v-.5h.5a.251.251,0,0,0,.251-.251V4.5Zm-1.76,0v.754h-.5a.251.251,0,0,0-.251.251v.754H4.765v-.5h.5a.251.251,0,0,0,.251-.251V4.5Zm-3.016.5a.5.5,0,0,1,.5-.5h.754v.754h-.5a.251.251,0,0,0-.251.251v.754a.5.5,0,0,1-.5-.5Zm12.066,6.536h-.754v-.5h.754Zm0-1.005H14.82a.251.251,0,0,0-.251.251v1.005a.251.251,0,0,0,.251.251h1.005V12.8H14.317a.251.251,0,0,0-.251.251v.367a2.514,2.514,0,0,0-1.257-.065V10.284h3.016ZM10.914,15.06h-3.5a2.476,2.476,0,0,0-.1-.251h3.691A2.476,2.476,0,0,0,10.914,15.06Zm-.116.754H7.53v-.251H10.8Zm.421-7.737.917,1.7H7.781V7.77h3.272Zm.086,6.229H7.781V10.284h4.525v3.228a2.524,2.524,0,0,0-1,.794Zm-8.8,0V10.052L2.97,7.016h7.677l.135.251H7.53a.251.251,0,0,0-.251.251v6.787H7.023a2.5,2.5,0,0,0-4.017.007v-.007Zm.5,1.508a2.011,2.011,0,1,1,2.011,2.011A2.011,2.011,0,0,1,3.005,15.814Zm3.513,2.011a2.515,2.515,0,0,0,.962-1.508h3.368a2.515,2.515,0,0,0,.961,1.508Zm6.793,0a2.011,2.011,0,1,1,2.011-2.011A2.011,2.011,0,0,1,13.311,17.825Zm3.268-3.519H15.318a2.53,2.53,0,0,0-.749-.665V13.3h2.011Z" transform="translate(-2 -4)" fill="#fdfcf7"/>
    <path id="Path_2207" data-name="Path 2207" d="M42.508,45a1.508,1.508,0,1,0,1.508,1.508A1.508,1.508,0,0,0,42.508,45Zm0,2.514a1.005,1.005,0,1,1,1.005-1.005A1.005,1.005,0,0,1,42.508,47.514Z" transform="translate(-31.197 -34.694)" fill="#fdfcf7"/>
    <path id="Path_2208" data-name="Path 2208" d="M9.508,45a1.508,1.508,0,1,0,1.508,1.508A1.508,1.508,0,0,0,9.508,45Zm0,2.514a1.005,1.005,0,1,1,1.005-1.005A1.005,1.005,0,0,1,9.508,47.514Z" transform="translate(-6.492 -34.694)" fill="#fdfcf7"/>
    <path id="Path_2209" data-name="Path 2209" d="M9.083,20.016a.251.251,0,0,0,.251-.251V17.251A.251.251,0,0,0,9.083,17H6.067a.251.251,0,0,0-.248.212l-.4,2.514a.251.251,0,0,0,.248.291ZM6.282,17.5h2.55v2.011H5.963Z" transform="translate(-4.559 -13.732)" fill="#fdfcf7"/>
    <rect id="Rectangle_261" data-name="Rectangle 261" width="0.693" height="0.693" transform="translate(6.241 6.934)" fill="#fdfcf7"/>
  </g>
</svg>
