<svg id="noun_Plane_2797956" xmlns="http://www.w3.org/2000/svg" width="16.048" height="10.115" viewBox="0 0 16.048 10.115">
  <g id="Group_51" data-name="Group 51" transform="translate(0 0)">
    <path id="Path_200" data-name="Path 200" d="M4.047,35.557a4.207,4.207,0,0,0-1.187.492A17.694,17.694,0,0,0,4.3,37.756l2.4-1A9.531,9.531,0,0,0,4.047,35.557Z" transform="translate(-2.86 -32.646)" fill="#fdfcf7"/>
    <path id="Path_201" data-name="Path 201" d="M25.055,19.552,21.511,21.02,16.75,19.363l-1.719.712,3.193,2.307-3.28,1.359-2.4,1c.706.728,1.53,1.4,2.128,1.341a23.156,23.156,0,0,0,4.813-1.39l-.749,4.791,1.637-.678,2.551-5.485c1.795-.755,3.128-1.368,3.128-1.368a1.3,1.3,0,0,0-.992-2.4Z" transform="translate(-10.799 -19.363)" fill="#fdfcf7"/>
  </g>
</svg>
