<svg xmlns="http://www.w3.org/2000/svg" width="11.379" height="6.188" viewBox="0 0 11.379 6.188">
  <g id="noun_sleeping_947849" transform="translate(948.1 -964.403)">
    <g id="Group_471" data-name="Group 471" transform="translate(-948.1 964.403)">
      <path id="Path_2233" data-name="Path 2233" d="M-947.034,990.239a.141.141,0,0,0-.139-.139h-.788a.141.141,0,0,0-.139.139v5.91a.141.141,0,0,0,.139.139h.788a.141.141,0,0,0,.139-.139V994.99h9.247v1.159a.141.141,0,0,0,.139.139h.788a.141.141,0,0,0,.139-.139v-2.213h-10.3v-3.7Z" transform="translate(948.1 -990.1)" fill="#fdfcf7"/>
      <circle id="Ellipse_69" data-name="Ellipse 69" cx="1.217" cy="1.217" r="1.217" transform="translate(1.518 0.962)" fill="#fdfcf7"/>
      <path id="Path_2234" data-name="Path 2234" d="M-905.785,997.2h-4.276a.141.141,0,0,0-.139.139v2.433h6.976A2.564,2.564,0,0,0-905.785,997.2Z" transform="translate(914.592 -996.377)" fill="#fdfcf7"/>
    </g>
  </g>
</svg>
