<svg xmlns="http://www.w3.org/2000/svg" width="14.902" height="6.267" viewBox="0 0 14.902 6.267">
  <path id="Path_2388" data-name="Path 2388" d="M11.934,16.522l-1.559-2.131a.453.453,0,0,0-.382-.191H4.777a.477.477,0,0,0,0,.954h.445c.032,0,.1.032.1.064l.254,2.227c0,.032-.032.1-.064.1a15.64,15.64,0,0,0-2.895.7.031.031,0,0,0-.032.032l-.922,1.463c0,.032-.032.032-.064.032H.737c-.064,0-.1.064-.064.127L.9,20.4a.068.068,0,0,0,.064.064H13.015c.032,0,.032,0,.064-.032.254-.318,2.577-2.958,2.481-3.785-.032-.318-1.559-.286-3.531-.064C12,16.554,11.966,16.554,11.934,16.522Zm-1.209.191c-.573.064-1.145.159-1.718.254-.032,0-.1-.032-.1-.064l-.223-1.622a.084.084,0,0,1,.1-.1h.922c.032,0,.064,0,.064.032l1.018,1.368C10.821,16.618,10.789,16.681,10.725,16.713ZM6.367,15.154H7.64c.032,0,.1.032.1.064L7.99,17c0,.032-.032.1-.064.1-.445.064-.859.159-1.272.223-.064,0-.1-.032-.1-.064l-.254-2C6.272,15.186,6.3,15.154,6.367,15.154Z" transform="translate(-0.661 -14.2)" fill="#fdfcf7"/>
</svg>
